<?xml version="1.0" encoding="UTF-8"?> <!-- Generator: Adobe Illustrator 22.0.0, SVG Export Plug-In . SVG Version: 6.00 Build 0) --> <svg xmlns="http://www.w3.org/2000/svg" xmlns:xlink="http://www.w3.org/1999/xlink" id="Шар_1" x="0px" y="0px" viewBox="0 0 682.9 164.8" style="enable-background:new 0 0 682.9 164.8;" xml:space="preserve"> <g> <g> <rect x="304.5" y="3.1" width="62.6" height="18"></rect> </g> <g> <path d="M80.7,164.8l-24.4-35.3h-1.4H29.3v35.3H0V38.1h54.8c11.2,0,21,1.9,29.2,5.6c8.3,3.7,14.6,9,19.1,15.9 c4.5,6.9,6.7,15,6.7,24.4c0,9.4-2.3,17.5-6.8,24.3c-4.5,6.8-11,12-19.3,15.7l28.4,40.7H80.7z M73.3,65.5 c-4.6-3.8-11.3-5.7-20.1-5.7H29.3V104h23.9c8.8,0,15.5-1.9,20.1-5.8c4.6-3.9,6.9-9.3,6.9-16.3C80.2,74.8,77.9,69.3,73.3,65.5z"></path> </g> <g> <path d="M222.2,137.6h-58.8l-11.2,27.2h-30l56.5-126.7h29l56.7,126.7h-30.8L222.2,137.6z M213.2,113.2l-20.1-48.5l-20.1,48.5 H213.2z"></path> </g> <g> <path d="M306.6,39V116l63-76.9h24.3v126.7h-29V88.8l-63.2,76.9h-24.1V39H306.6z"></path> </g> <g> <path d="M444.7,156.3c-10.6-5.7-18.8-13.5-24.8-23.4s-9-21.1-9-33.6c0-12.4,3-23.6,9-33.6c6-10,14.2-17.8,24.8-23.4 c10.6-5.7,22.4-8.5,35.6-8.5c13.2,0,25,2.8,35.5,8.5c10.5,5.7,18.8,13.5,24.8,23.4c6,10,9.1,21.1,9.1,33.6c0,12.4-3,23.6-9.1,33.6 c-6,10-14.3,17.8-24.8,23.4c-10.5,5.7-22.3,8.5-35.5,8.5C467.1,164.8,455.3,161.9,444.7,156.3z M500.6,134.6 c6-3.4,10.8-8.2,14.2-14.4c3.4-6.2,5.2-13.2,5.2-21c0-7.8-1.7-14.8-5.2-21c-3.4-6.2-8.2-11-14.2-14.4c-6-3.4-12.8-5.2-20.3-5.2 c-7.5,0-14.2,1.7-20.3,5.2c-6,3.4-10.8,8.2-14.2,14.4c-3.4,6.2-5.2,13.2-5.2,21c0,7.8,1.7,14.8,5.2,21c3.4,6.2,8.2,11,14.2,14.4 c6,3.4,12.8,5.2,20.3,5.2C487.8,139.8,494.5,138.1,500.6,134.6z"></path> </g> <g> <path d="M682.9,39v126.7h-24.1l-63.2-76.9v76.9h-29V39h24.3l63,76.9V39H682.9z"></path> </g> </g> </svg> 